{
  "source": "C:\\Users\\Peter\\Desktop\\stuff\\MIUN\\quantitative_research\\video_compression\\videos\\HEVC_CLASS_B\\BasketballDrive_1920x1080_50.y4m",
  "output": "C:\\Users\\Peter\\Desktop\\stuff\\MIUN\\quantitative_research\\video_compression\\compressed_videos\\HEVC_CLASS_B\\h264\\8\\BasketballDrive_1920x1080_50_h264.mp4",
  "codec": "h264",
  "ok": "Input #0, yuv4mpegpipe, from 'C:\\Users\\Peter\\Desktop\\stuff\\MIUN\\quantitative_research\\video_compression\\videos\\HEVC_CLASS_B\\BasketballDrive_1920x1080_50.y4m':\n  Duration: 00:00:10.00, start: 0.000000, bitrate: 1244162 kb/s\n  Stream #0:0: Video: rawvideo (I420 / 0x30323449), yuv420p(progressive), 1920x1080, 50 fps, 50 tbr, 50 tbn\n[out#0/mp4 @ 000001f178579a40] Codec AVOption b:a (set bitrate (in bits/s)) has not been used for any stream. The most likely reason is either wrong type (e.g. a video option with no video streams) or that it is a private option of some decoder which was not actually used for any stream.\nStream mapping:\n  Stream #0:0 -> #0:0 (rawvideo (native) -> h264 (libx264))\nPress [q] to stop, [?] for help\n[libx264 @ 000001f17857cac0] using cpu capabilities: MMX2 SSE2Fast SSSE3 SSE4.2 AVX FMA3 BMI2 AVX2\n[libx264 @ 000001f17857cac0] profile High, level 5.0, 4:2:0, 8-bit\n[libx264 @ 000001f17857cac0] 264 - core 165 r3222 b35605a - H.264/MPEG-4 AVC codec - Copyleft 2003-2025 - http://www.videolan.org/x264.html - options: cabac=1 ref=5 deblock=1:0:0 analyse=0x3:0x113 me=hex subme=8 psy=1 psy_rd=1.00:0.00 mixed_ref=1 me_range=16 chroma_me=1 trellis=2 8x8dct=1 cqm=0 deadzone=21,11 fast_pskip=1 chroma_qp_offset=-2 threads=18 lookahead_threads=3 sliced_threads=0 nr=0 decimate=1 interlaced=0 bluray_compat=0 constrained_intra=0 bframes=3 b_pyramid=2 b_adapt=1 b_bias=0 direct=3 weightb=1 open_gop=0 weightp=2 keyint=250 keyint_min=25 scenecut=40 intra_refresh=0 rc_lookahead=50 rc=cbr mbtree=1 bitrate=8000 ratetol=1.0 qcomp=0.60 qpmin=0 qpmax=69 qpstep=4 vbv_maxrate=8000 vbv_bufsize=8000 nal_hrd=none filler=0 ip_ratio=1.40 aq=1:1.00\nOutput #0, mp4, to 'C:\\Users\\Peter\\Desktop\\stuff\\MIUN\\quantitative_research\\video_compression\\compressed_videos\\HEVC_CLASS_B\\h264\\8\\BasketballDrive_1920x1080_50_h264.mp4':\n  Metadata:\n    encoder         : Lavf62.3.100\n  Stream #0:0: Video: h264 (avc1 / 0x31637661), yuv420p(tv, progressive), 1920x1080, q=2-31, 8000 kb/s, 50 fps, 12800 tbn\n    Metadata:\n      encoder         : Lavc62.11.100 libx264\n    Side data:\n      cpb: bitrate max/min/avg: 8000000/0/8000000 buffer size: 8000000 vbv_delay: N/A\nframe=    0 fps=0.0 q=0.0 size=       0KiB time=N/A bitrate=N/A speed=N/A elapsed=0:00:00.51    \nframe=    0 fps=0.0 q=0.0 size=       0KiB time=N/A bitrate=N/A speed=N/A elapsed=0:00:01.07    \nframe=    0 fps=0.0 q=0.0 size=       0KiB time=N/A bitrate=N/A speed=N/A elapsed=0:00:01.63    \nframe=    0 fps=0.0 q=0.0 size=       0KiB time=N/A bitrate=N/A speed=N/A elapsed=0:00:02.18    \nframe=    0 fps=0.0 q=0.0 size=       0KiB time=N/A bitrate=N/A speed=N/A elapsed=0:00:02.76    \nframe=    5 fps=1.5 q=32.0 size=       0KiB time=00:00:00.06 bitrate=   6.4kbits/s speed=0.018x elapsed=0:00:03.34    \nframe=   14 fps=3.5 q=31.0 size=       0KiB time=00:00:00.24 bitrate=   1.6kbits/s speed=0.0602x elapsed=0:00:03.98    \nframe=   25 fps=5.5 q=31.0 size=     256KiB time=00:00:00.46 bitrate=4559.9kbits/s speed=0.102x elapsed=0:00:04.51    \nframe=   33 fps=6.5 q=31.0 size=     256KiB time=00:00:00.62 bitrate=3383.1kbits/s speed=0.122x elapsed=0:00:05.06    \nframe=   37 fps=6.5 q=31.0 size=     512KiB time=00:00:00.70 bitrate=5992.4kbits/s speed=0.123x elapsed=0:00:05.67    \nframe=   53 fps=8.4 q=31.0 size=     768KiB time=00:00:01.02 bitrate=6168.5kbits/s speed=0.161x elapsed=0:00:06.32    \nframe=   57 fps=8.2 q=31.0 size=     768KiB time=00:00:01.04 bitrate=6049.8kbits/s speed=0.15x elapsed=0:00:06.95    \nframe=   72 fps=9.5 q=32.0 size=    1280KiB time=00:00:01.30 bitrate=8066.3kbits/s speed=0.171x elapsed=0:00:07.59    \nframe=   77 fps=9.3 q=32.0 size=    1280KiB time=00:00:01.42 bitrate=7384.6kbits/s speed=0.171x elapsed=0:00:08.29    \nframe=   89 fps=9.9 q=32.0 size=    1536KiB time=00:00:01.74 bitrate=7231.8kbits/s speed=0.193x elapsed=0:00:09.02    \nframe=  105 fps= 11 q=32.0 size=    2048KiB time=00:00:02.00 bitrate=8388.8kbits/s speed=0.208x elapsed=0:00:09.62    \nframe=  105 fps= 10 q=32.0 size=    2048KiB time=00:00:02.06 bitrate=8144.5kbits/s speed= 0.2x elapsed=0:00:10.30    \nframe=  123 fps= 11 q=32.0 size=    2304KiB time=00:00:02.42 bitrate=7799.5kbits/s speed=0.22x elapsed=0:00:11.01    \nframe=  125 fps= 11 q=32.0 size=    2304KiB time=00:00:02.46 bitrate=7672.7kbits/s speed=0.213x elapsed=0:00:11.55    \nframe=  141 fps= 12 q=32.0 size=    2560KiB time=00:00:02.76 bitrate=7598.5kbits/s speed=0.228x elapsed=0:00:12.09    \nframe=  147 fps= 12 q=32.0 size=    2816KiB time=00:00:02.86 bitrate=8066.1kbits/s speed=0.224x elapsed=0:00:12.76    \nframe=  158 fps= 12 q=32.0 size=    3072KiB time=00:00:03.06 bitrate=8224.3kbits/s speed=0.229x elapsed=0:00:13.37    \nframe=  173 fps= 12 q=32.0 size=    3328KiB time=00:00:03.38 bitrate=8066.1kbits/s speed=0.24x elapsed=0:00:14.07    \nframe=  185 fps= 12 q=32.0 size=    3584KiB time=00:00:03.52 bitrate=8341.1kbits/s speed=0.237x elapsed=0:00:14.86    \nframe=  197 fps= 13 q=32.0 size=    3584KiB time=00:00:03.90 bitrate=7528.3kbits/s speed=0.25x elapsed=0:00:15.62    \nframe=  212 fps= 13 q=32.0 size=    4096KiB time=00:00:04.20 bitrate=7989.2kbits/s speed=0.258x elapsed=0:00:16.30    \nframe=  214 fps= 13 q=32.0 size=    4096KiB time=00:00:04.22 bitrate=7951.4kbits/s speed=0.251x elapsed=0:00:16.82    \nframe=  225 fps= 13 q=32.0 size=    4096KiB time=00:00:04.46 bitrate=7523.5kbits/s speed=0.257x elapsed=0:00:17.38    \nframe=  233 fps= 13 q=31.0 size=    4352KiB time=00:00:04.62 bitrate=7716.9kbits/s speed=0.258x elapsed=0:00:17.89    \nframe=  237 fps= 13 q=32.0 size=    4352KiB time=00:00:04.70 bitrate=7585.5kbits/s speed=0.255x elapsed=0:00:18.45    \nframe=  254 fps= 13 q=31.0 size=    4864KiB time=00:00:05.04 bitrate=7906.0kbits/s speed=0.266x elapsed=0:00:18.97    \nframe=  259 fps= 13 q=31.0 size=    4864KiB time=00:00:05.10 bitrate=7813.0kbits/s speed=0.261x elapsed=0:00:19.50    \nframe=  275 fps= 14 q=31.0 size=    5120KiB time=00:00:05.46 bitrate=7681.9kbits/s speed=0.271x elapsed=0:00:20.12    \nframe=  279 fps= 13 q=31.0 size=    5120KiB time=00:00:05.54 bitrate=7571.0kbits/s speed=0.267x elapsed=0:00:20.76    \nframe=  291 fps= 14 q=32.0 size=    5376KiB time=00:00:05.78 bitrate=7619.5kbits/s speed=0.272x elapsed=0:00:21.26    \nframe=  299 fps= 14 q=32.0 size=    5632KiB time=00:00:05.94 bitrate=7767.3kbits/s speed=0.273x elapsed=0:00:21.78    \nframe=  313 fps= 14 q=32.0 size=    5888KiB time=00:00:06.22 bitrate=7754.8kbits/s speed=0.279x elapsed=0:00:22.29    \nframe=  319 fps= 14 q=31.0 size=    5888KiB time=00:00:06.34 bitrate=7608.0kbits/s speed=0.278x elapsed=0:00:22.81    \nframe=  325 fps= 14 q=31.0 size=    6144KiB time=00:00:06.46 bitrate=7791.3kbits/s speed=0.277x elapsed=0:00:23.33    \nframe=  335 fps= 14 q=31.0 size=    6400KiB time=00:00:06.66 bitrate=7872.2kbits/s speed=0.279x elapsed=0:00:23.84    \nframe=  343 fps= 14 q=31.0 size=    6400KiB time=00:00:06.82 bitrate=7687.6kbits/s speed=0.28x elapsed=0:00:24.37    \nframe=  355 fps= 14 q=30.0 size=    6656KiB time=00:00:07.06 bitrate=7723.3kbits/s speed=0.284x elapsed=0:00:24.87    \nframe=  363 fps= 14 q=31.0 size=    6656KiB time=00:00:07.22 bitrate=7552.1kbits/s speed=0.284x elapsed=0:00:25.39    \nframe=  375 fps= 14 q=31.0 size=    6912KiB time=00:00:07.46 bitrate=7590.3kbits/s speed=0.288x elapsed=0:00:25.91    \nframe=  383 fps= 14 q=31.0 size=    7168KiB time=00:00:07.62 bitrate=7706.1kbits/s speed=0.288x elapsed=0:00:26.42    \nframe=  387 fps= 14 q=31.0 size=    7168KiB time=00:00:07.70 bitrate=7626.1kbits/s speed=0.286x elapsed=0:00:26.94    \nframe=  403 fps= 15 q=31.0 size=    7424KiB time=00:00:08.02 bitrate=7583.3kbits/s speed=0.292x elapsed=0:00:27.45    \nframe=  405 fps= 14 q=31.0 size=    7424KiB time=00:00:08.10 bitrate=7508.4kbits/s speed=0.29x elapsed=0:00:27.97    \nframe=  421 fps= 15 q=31.0 size=    7680KiB time=00:00:08.38 bitrate=7507.7kbits/s speed=0.294x elapsed=0:00:28.48    \nframe=  424 fps= 15 q=31.0 size=    7680KiB time=00:00:08.44 bitrate=7454.4kbits/s speed=0.291x elapsed=0:00:29.01    \nframe=  440 fps= 15 q=31.0 size=    8192KiB time=00:00:08.76 bitrate=7660.9kbits/s speed=0.297x elapsed=0:00:29.51    \nframe=  447 fps= 15 q=32.0 size=    8192KiB time=00:00:08.90 bitrate=7540.4kbits/s speed=0.296x elapsed=0:00:30.03    \nframe=  455 fps= 15 q=32.0 size=    8448KiB time=00:00:09.06 bitrate=7638.7kbits/s speed=0.296x elapsed=0:00:30.55    \nframe=  463 fps= 15 q=32.0 size=    8704KiB time=00:00:09.22 bitrate=7733.6kbits/s speed=0.297x elapsed=0:00:31.07    \nframe=  467 fps= 15 q=32.0 size=    8704KiB time=00:00:09.30 bitrate=7667.0kbits/s speed=0.295x elapsed=0:00:31.57    \nframe=  479 fps= 15 q=30.0 size=    8960KiB time=00:00:09.54 bitrate=7694.0kbits/s speed=0.297x elapsed=0:00:32.10    \nframe=  487 fps= 15 q=-1.0 size=    9216KiB time=00:00:09.70 bitrate=7783.3kbits/s speed=0.297x elapsed=0:00:32.60    \nframe=  491 fps= 15 q=-1.0 size=    9216KiB time=00:00:09.78 bitrate=7719.6kbits/s speed=0.295x elapsed=0:00:33.13    \n[mp4 @ 000001f178579b40] Starting second pass: moving the moov atom to the beginning of the file\n[out#0/mp4 @ 000001f178579a40] video:9518KiB audio:0KiB subtitle:0KiB other streams:0KiB global headers:0KiB muxing overhead: 0.071808%\nframe=  500 fps= 15 q=-1.0 Lsize=    9525KiB time=00:00:09.96 bitrate=7834.4kbits/s speed= 0.3x elapsed=0:00:33.23    \n[libx264 @ 000001f17857cac0] frame I:2     Avg QP:26.89  size: 94566\n[libx264 @ 000001f17857cac0] frame P:126   Avg QP:29.17  size: 40239\n[libx264 @ 000001f17857cac0] frame B:372   Avg QP:32.60  size: 12062\n[libx264 @ 000001f17857cac0] consecutive B-frames:  0.8%  0.0%  0.0% 99.2%\n[libx264 @ 000001f17857cac0] mb I  I16..4: 18.8% 62.3% 18.9%\n[libx264 @ 000001f17857cac0] mb P  I16..4:  1.9%  8.7%  1.7%  P16..4: 44.2%  9.7%  5.5%  0.0%  0.0%    skip:28.4%\n[libx264 @ 000001f17857cac0] mb B  I16..4:  0.1%  0.7%  0.1%  B16..8: 47.7%  4.4%  0.9%  direct: 1.5%  skip:44.6%  L0:42.0% L1:53.7% BI: 4.3%\n[libx264 @ 000001f17857cac0] 8x8 transform intra:71.4% inter:79.9%\n[libx264 @ 000001f17857cac0] direct mvs  spatial:97.3% temporal:2.7%\n[libx264 @ 000001f17857cac0] coded y,uvDC,uvAC intra: 70.5% 64.4% 34.4% inter: 11.0% 9.7% 0.8%\n[libx264 @ 000001f17857cac0] i16 v,h,dc,p: 39% 26%  1% 34%\n[libx264 @ 000001f17857cac0] i8 v,h,dc,ddl,ddr,vr,hd,vl,hu: 10%  6%  3% 10% 17% 16% 16% 11% 10%\n[libx264 @ 000001f17857cac0] i4 v,h,dc,ddl,ddr,vr,hd,vl,hu: 12% 10%  3%  9% 17% 15% 14% 10% 10%\n[libx264 @ 000001f17857cac0] i8c dc,h,v,p: 31% 24% 24% 21%\n[libx264 @ 000001f17857cac0] Weighted P-Frames: Y:0.0% UV:0.0%\n[libx264 @ 000001f17857cac0] ref P L0: 55.3% 23.3% 12.5%  4.6%  4.3%\n[libx264 @ 000001f17857cac0] ref B L0: 91.0%  6.5%  2.0%  0.5%\n[libx264 @ 000001f17857cac0] ref B L1: 97.0%  3.0%\n[libx264 @ 000001f17857cac0] kb/s:7796.89\n",
  "seconds": 33.5887885093689,
  "probe_out": {}
}